<?xml version="1.0" encoding="UTF-8" standalone="no"?>
<svg
   xmlns:dc="http://purl.org/dc/elements/1.1/"
   xmlns:cc="http://creativecommons.org/ns#"
   xmlns:rdf="http://www.w3.org/1999/02/22-rdf-syntax-ns#"
   xmlns:svg="http://www.w3.org/2000/svg"
   xmlns="http://www.w3.org/2000/svg"
   xmlns:sodipodi="http://sodipodi.sourceforge.net/DTD/sodipodi-0.dtd"
   xmlns:inkscape="http://www.inkscape.org/namespaces/inkscape"
   id="svg"
   version="1.1"
   width="52.275337"
   height="41.257511"
   viewBox="0 0 52.275337 41.257511"
   sodipodi:docname="aquaClean2.svg"
   inkscape:version="0.92.4 (5da689c313, 2019-01-14)">
  <metadata
     id="metadata13">
    <rdf:RDF>
      <cc:Work
         rdf:about="">
        <dc:format>image/svg+xml</dc:format>
        <dc:type
           rdf:resource="http://purl.org/dc/dcmitype/StillImage" />
        <dc:title></dc:title>
      </cc:Work>
    </rdf:RDF>
  </metadata>
  <defs
     id="defs11">
    <filter
       style="color-interpolation-filters:sRGB;"
       inkscape:label="Invert"
       id="filter818">
      <feColorMatrix
         values="-1 0 0 0 1 0 -1 0 0 1 0 0 -1 0 1 -0.21 -0.72 -0.07 2 0 "
         result="color2"
         id="feColorMatrix816" />
    </filter>
  </defs>
  <sodipodi:namedview
     pagecolor="#ffffff"
     bordercolor="#666666"
     borderopacity="1"
     objecttolerance="10"
     gridtolerance="10"
     guidetolerance="10"
     inkscape:pageopacity="0"
     inkscape:pageshadow="2"
     inkscape:window-width="958"
     inkscape:window-height="1008"
     id="namedview9"
     showgrid="false"
     inkscape:snap-nodes="false"
     inkscape:zoom="7"
     inkscape:cx="3.019529"
     inkscape:cy="24.097533"
     inkscape:window-x="953"
     inkscape:window-y="0"
     inkscape:window-maximized="0"
     inkscape:current-layer="svgg" />
  <g
     id="svgg"
     transform="translate(-157.26306,-202.97279)">
    <path
       id="path0-7-3-7-9-6"
       d="m 176.47326,210.21365 c -0.286,0.115 -0.256,0.402 0.087,0.843 0.357,0.46 0.662,0.301 0.806,-0.42 0.109,-0.544 -0.215,-0.697 -0.893,-0.423 m 9.125,0.095 c -3.32,1.456 -8.582,6.709 -9.914,9.897 -0.54,1.292 -0.144,1.475 0.484,0.225 1.664,-3.312 7.439,-8.999 9.888,-9.737 0.206,-0.062 0.375,-0.221 0.375,-0.352 0,-0.278 -0.252,-0.289 -0.833,-0.033 m -5.516,0.397 c -0.192,0.231 -0.167,0.314 0.171,0.589 0.515,0.417 0.749,0.322 0.814,-0.33 0.059,-0.606 -0.561,-0.77 -0.985,-0.259 m 5.921,1.12 c -3.732,1.963 -9.924,8.851 -9.336,10.385 0.086,0.223 0.228,0.059 0.602,-0.699 1.559,-3.157 6.141,-7.776 9.409,-9.484 0.518,-0.27 0.978,-0.551 1.024,-0.625 0.19,-0.307 -0.76,-0.071 -1.699,0.423 m -7.278,0.649 c -0.48,0.588 -0.376,0.756 0.488,0.783 0.511,0.017 0.563,-0.155 0.238,-0.783 l -0.282,-0.544 -0.444,0.544 m 8.066,0.582 c -4.753,2.812 -10.782,10.278 -8.63,10.686 0.491,0.094 1.902,-0.61 3.335,-1.663 0.703,-0.515 1.084,-0.919 1.138,-1.204 0.095,-0.497 0.033,-0.473 -1.036,0.388 -1.052,0.848 -2.673,1.839 -3.005,1.839 -0.553,0 0.218,-1.475 1.913,-3.663 2.067,-2.667 7.208,-6.787 7.77,-6.225 0.16,0.16 -0.362,1.347 -0.88,2.005 -0.099,0.125 -0.099,0.305 10e-4,0.483 0.247,0.442 1.359,-1.395 1.484,-2.452 l 0.096,-0.814 h -0.568 c -0.358,0 -0.959,0.23 -1.618,0.62 m -10.755,0.588 c -0.193,0.72 -0.136,0.836 0.352,0.713 0.8,-0.201 0.958,-0.441 0.514,-0.782 -0.519,-0.399 -0.745,-0.381 -0.866,0.069 m -0.522,2.25 c 0.065,0.16 0.192,0.496 0.282,0.746 l 0.165,0.454 0.467,-0.454 c 0.563,-0.547 0.308,-1.038 -0.541,-1.038 -0.402,0 -0.47,0.053 -0.373,0.292 m 10.46,0.25 c -0.36,0.458 -2.18,4.112 -2.285,4.588 -0.564,2.57 2.912,4.136 4.436,1.999 0.745,-1.043 0.577,-2.176 -0.691,-4.67 -1.109,-2.182 -1.179,-2.273 -1.46,-1.917 m 0.662,1.667 c 1.649,3.185 1.763,3.781 0.9,4.696 -1.4,1.485 -3.922,-0.007 -3.22,-1.905 0.565,-1.527 1.564,-3.333 1.844,-3.333 0.107,0 0.321,0.244 0.476,0.542 m -21.057,15.583 c -0.187,0.435 -0.49,1.204 -0.674,1.708 -0.95,2.607 -0.952,2.622 -0.357,2.433 0.17,-0.054 0.396,-0.327 0.501,-0.606 l 0.192,-0.508 1.303,0.049 c 1.218,0.046 1.307,0.074 1.358,0.433 0.054,0.379 0.764,0.854 0.969,0.648 0.095,-0.095 -0.061,-0.625 -0.45,-1.532 -0.472,-1.1 -0.99,-2.504 -0.99,-2.683 0,-1.02 -1.408,-0.975 -1.852,0.058 m 20.352,-0.467 c -2.805,1.491 -1.111,5.464 2,4.688 0.535,-0.133 0.501,-0.147 -0.421,-0.162 -3.469,-0.059 -3.487,-4.51 -0.018,-4.52 0.614,-0.002 0.785,-0.048 0.606,-0.164 -0.403,-0.26 -1.536,-0.177 -2.167,0.158 m 3.44,-0.209 c -0.376,0.376 -0.041,4.819 0.371,4.926 0.516,0.134 0.739,-0.059 0.367,-0.319 -0.318,-0.223 -0.345,-0.406 -0.345,-2.389 0,-1.957 -0.098,-2.513 -0.393,-2.218 m -22.434,1.647 c 0.495,1.086 0.405,1.321 -0.508,1.321 -0.851,0 -0.911,-0.23 -0.383,-1.459 0.347,-0.806 0.469,-0.787 0.891,0.138 m 3.411,-0.438 c -1.127,0.461 -1.386,2.358 -0.438,3.205 0.554,0.495 1.454,0.637 1.806,0.285 0.308,-0.307 0.548,-0.002 0.548,0.695 0,0.534 0.06,0.657 0.316,0.657 0.455,0 0.518,-0.302 0.515,-2.472 -0.003,-2.149 -0.124,-2.567 -0.649,-2.241 -0.264,0.163 -0.421,0.155 -0.797,-0.041 -0.52,-0.271 -0.807,-0.291 -1.301,-0.088 m 8.625,-0.049 c -0.79,0.17 -0.417,0.558 0.535,0.558 0.759,0 0.943,0.059 1.101,0.354 0.241,0.451 -0.016,0.64 -0.878,0.643 -1.07,0.005 -1.467,0.289 -1.467,1.053 0,0.999 1.071,1.491 1.992,0.916 0.253,-0.158 0.409,-0.153 0.737,0.022 0.64,0.343 1.372,-0.2 0.771,-0.572 -0.091,-0.056 -0.166,-0.544 -0.166,-1.084 0,-1.572 -0.944,-2.251 -2.625,-1.89 m -4.941,0.321 c -0.71,1.85 0.554,3.957 1.931,3.22 0.252,-0.136 0.456,-0.133 0.766,0.008 0.592,0.27 0.696,0.031 0.699,-1.603 0.003,-1.578 -0.081,-1.888 -0.515,-1.888 -0.28,0 -0.316,0.135 -0.321,1.208 -0.006,1.461 -0.223,1.838 -1.015,1.762 -0.65,-0.063 -0.771,-0.357 -0.796,-1.929 -0.017,-1.053 -0.465,-1.518 -0.749,-0.778 m 23.232,0.042 c 0,0.07 0.091,0.219 0.202,0.329 0.299,0.299 0.31,2.148 0.015,2.394 -0.203,0.167 -0.18,0.231 0.147,0.412 0.708,0.393 0.989,0.301 0.711,-0.232 -0.132,-0.252 -0.241,-0.908 -0.243,-1.458 -0.002,-0.55 -0.059,-1.081 -0.126,-1.179 -0.156,-0.228 -0.706,-0.435 -0.706,-0.266 m 4.334,0.028 c 0,0.092 0.071,0.167 0.158,0.167 0.244,0 0.506,1.141 0.507,2.208 0.001,0.527 0.076,0.958 0.168,0.958 0.35,0 0.199,-2.735 -0.173,-3.135 -0.36,-0.386 -0.66,-0.476 -0.66,-0.198 m -10.305,0.386 c -1.282,1.365 0.207,3.407 2.151,2.949 0.521,-0.123 0.49,-0.136 -0.357,-0.151 -1.2,-0.022 -2.098,-0.77 -1.594,-1.327 0.248,-0.274 0.253,-0.328 0.035,-0.412 -0.354,-0.136 -0.035,-1.009 0.453,-1.246 0.359,-0.173 0.359,-0.177 0.021,-0.188 -0.191,-0.006 -0.509,0.163 -0.709,0.375 m 2.081,-0.229 c 0.445,0.191 0.703,1.148 0.366,1.361 -0.167,0.106 -0.132,0.144 0.132,0.146 0.794,0.006 0.373,-1.543 -0.441,-1.621 -0.396,-0.038 -0.399,-0.032 -0.057,0.114 m 6.168,-0.046 c -0.182,0.182 -0.13,3.222 0.056,3.222 0.091,0 0.168,-0.356 0.17,-0.791 0.006,-1.102 0.258,-2.077 0.602,-2.329 0.26,-0.19 0.237,-0.213 -0.213,-0.213 -0.277,0 -0.554,0.05 -0.615,0.111 m -27.637,0.367 c 0.443,0.384 0.489,1.435 0.084,1.884 -0.397,0.438 -1.305,0.401 -1.632,-0.066 -0.858,-1.225 0.455,-2.767 1.548,-1.818 m 8.673,1.318 c 0.335,0.626 -0.608,1.248 -1.317,0.869 -0.434,-0.232 -0.418,-0.584 0.04,-0.906 0.494,-0.345 1.081,-0.328 1.277,0.037 m 14.629,0.009 c -0.676,0.747 -0.093,1.538 1.108,1.503 l 0.866,-0.025 -0.747,-0.1 c -0.926,-0.124 -1.285,-0.762 -0.758,-1.345 0.25,-0.275 0.26,-0.338 0.057,-0.338 -0.138,0 -0.374,0.137 -0.526,0.305"
       inkscape:connector-curvature="0"
       style="fill:#1a1a1a;fill-rule:evenodd;stroke:none;filter:url(#filter818)"
       sodipodi:nodetypes="ccccccccscccccccccccccccccccccscsccccscccccccccscccccccccscccsccccccsccccccccccsccscccccsscccccsccscccscccccscccccccccscccscsccccccccccccccccsccsccccccccccccccsc" />
    <path
       id="path4"
       d="m 165.57292,220.65837 v 2.917 h 2.833 2.833 v -2.917 -2.916 h -2.833 -2.833 v 2.916"
       inkscape:connector-curvature="0"
       style="fill:#ff6600;fill-rule:evenodd;stroke:none"
       sodipodi:nodetypes="ccccccccc" />
  </g>
</svg>
