<?xml version="1.0" encoding="UTF-8" standalone="no"?>
<svg
   xmlns:dc="http://purl.org/dc/elements/1.1/"
   xmlns:cc="http://creativecommons.org/ns#"
   xmlns:rdf="http://www.w3.org/1999/02/22-rdf-syntax-ns#"
   xmlns:svg="http://www.w3.org/2000/svg"
   xmlns="http://www.w3.org/2000/svg"
   xmlns:sodipodi="http://sodipodi.sourceforge.net/DTD/sodipodi-0.dtd"
   xmlns:inkscape="http://www.inkscape.org/namespaces/inkscape"
   id="svg"
   version="1.1"
   width="54.274761"
   height="41.291275"
   viewBox="0 0 54.274761 41.291275"
   sodipodi:docname="calcNClean.svg"
   inkscape:version="0.92.4 (5da689c313, 2019-01-14)">
  <metadata
     id="metadata13">
    <rdf:RDF>
      <cc:Work
         rdf:about="">
        <dc:format>image/svg+xml</dc:format>
        <dc:type
           rdf:resource="http://purl.org/dc/dcmitype/StillImage" />
        <dc:title></dc:title>
      </cc:Work>
    </rdf:RDF>
  </metadata>
  <defs
     id="defs11">
    <filter
       style="color-interpolation-filters:sRGB;"
       inkscape:label="Invert"
       id="filter818">
      <feColorMatrix
         values="-1 0 0 0 1 0 -1 0 0 1 0 0 -1 0 1 -0.21 -0.72 -0.07 2 0 "
         result="color2"
         id="feColorMatrix816" />
    </filter>
  </defs>
  <sodipodi:namedview
     pagecolor="#ffffff"
     bordercolor="#666666"
     borderopacity="1"
     objecttolerance="10"
     gridtolerance="10"
     guidetolerance="10"
     inkscape:pageopacity="0"
     inkscape:pageshadow="2"
     inkscape:window-width="958"
     inkscape:window-height="1008"
     id="namedview9"
     showgrid="false"
     inkscape:snap-nodes="false"
     inkscape:zoom="7"
     inkscape:cx="25.152969"
     inkscape:cy="44.078159"
     inkscape:window-x="-7"
     inkscape:window-y="0"
     inkscape:window-maximized="0"
     inkscape:current-layer="svgg" />
  <g
     id="svgg"
     transform="translate(-212.6978,-204.0072)">
    <path
       id="path0-7-3-7-9"
       d="m 237.71418,211.35693 c -2.726,0.561 -6.36,5.052 -5.105,6.307 0.423,0.423 0.822,0.064 1.044,-0.937 0.957,-4.305 6.117,-5.956 9.336,-2.988 0.779,0.717 0.886,1.019 0.45,1.263 -0.367,0.205 -0.209,0.562 0.38,0.862 0.263,0.134 0.763,0.416 1.11,0.628 0.86,0.524 0.952,0.405 0.952,-1.241 v -1.428 l -0.52,0.104 c -0.46,0.092 -0.629,0.002 -1.479,-0.784 -1.77,-1.639 -3.895,-2.255 -6.168,-1.786 m 2.607,2.457 c -0.576,0.576 0.111,2.191 0.704,1.654 0.165,-0.148 0.355,-0.27 0.423,-0.27 0.757,0 0.626,-0.73 -0.199,-1.107 -0.34,-0.155 -0.664,-0.305 -0.72,-0.333 -0.056,-0.028 -0.149,-0.003 -0.208,0.056 m -3.757,0.537 c -0.279,0.177 0.509,1.68 0.881,1.68 0.373,0 1.05,-1.492 0.76,-1.676 -0.308,-0.194 -1.336,-0.197 -1.641,-0.004 m 5.433,3.314 -0.618,0.633 0.836,0.301 c 1.048,0.377 1.394,0.281 1.164,-0.323 -0.091,-0.238 -0.165,-0.616 -0.165,-0.839 0,-0.605 -0.494,-0.513 -1.217,0.228 m -3.67,-0.065 c -0.045,0.114 0.05,0.595 0.21,1.067 l 0.291,0.859 0.693,-0.594 c 0.808,-0.691 0.874,-1.021 0.235,-1.161 -0.252,-0.055 -0.659,-0.163 -0.904,-0.24 -0.311,-0.098 -0.47,-0.077 -0.525,0.069 m -2.738,0.684 c -0.488,0.968 -0.525,0.914 0.625,0.914 0.55,0 1,-0.038 1,-0.085 0,-0.319 -0.797,-1.573 -1,-1.573 -0.137,0 -0.418,0.335 -0.625,0.744 m 9.49,0.039 c -0.081,0.16 -0.246,0.667 -0.368,1.125 -1.115,4.192 -6.626,5.637 -9.638,2.526 l -0.559,-0.576 0.367,-0.367 c 0.434,-0.433 0.408,-0.467 -1.015,-1.342 -1.242,-0.764 -1.312,-0.717 -1.316,0.87 -0.003,1.462 0.071,1.636 0.634,1.483 0.385,-0.105 0.551,-0.016 1.197,0.642 3.7,3.769 10.312,1.926 11.404,-3.179 0.052,-0.243 0.137,-0.552 0.188,-0.687 0.202,-0.526 -0.642,-0.994 -0.894,-0.495 m -5.99,2.412 c -0.494,0.238 -0.473,0.473 0.093,1.015 0.672,0.644 0.771,0.575 1.094,-0.76 0.125,-0.514 -0.412,-0.629 -1.187,-0.255 m -9.427,12.904 c -0.209,0.209 -0.131,4.475 0.086,4.692 0.359,0.36 1.077,0.265 0.747,-0.099 -0.214,-0.236 -0.28,-0.746 -0.317,-2.444 -0.044,-1.995 -0.165,-2.5 -0.516,-2.149 m 16.589,2.338 0.047,2.471 0.49,0.056 c 0.405,0.046 0.457,0.015 0.297,-0.178 -0.12,-0.145 -0.212,-1.082 -0.241,-2.47 -0.041,-1.99 -0.079,-2.244 -0.343,-2.294 -0.274,-0.053 -0.292,0.122 -0.25,2.415 m -24.502,-1.924 c -1.675,0.828 -1.779,3.238 -0.18,4.137 0.768,0.432 2.645,0.495 2.645,0.089 0,-0.198 -0.134,-0.23 -0.633,-0.15 -1.729,0.276 -3.17,-1.607 -2.247,-2.936 0.57,-0.819 0.908,-0.983 2.047,-0.995 0.989,-0.01 1.055,-0.032 0.76,-0.255 -0.465,-0.352 -1.562,-0.301 -2.392,0.11 m 17.357,-0.063 c -0.054,0.16 -0.233,0.591 -0.397,0.958 -0.685,1.531 -1.205,2.702 -1.443,3.25 -0.139,0.321 -0.328,0.745 -0.421,0.942 -0.093,0.197 -0.133,0.46 -0.088,0.583 0.084,0.231 0.466,-0.538 2.041,-4.108 0.161,-0.367 0.427,-0.948 0.59,-1.292 0.245,-0.518 0.255,-0.625 0.056,-0.625 -0.132,0 -0.284,0.131 -0.338,0.292 m -13.392,1.198 c -0.274,0.188 -0.274,0.188 0.896,0.23 0.996,0.037 1.491,0.536 1.009,1.018 -0.258,0.258 -0.257,0.298 0.004,0.587 0.293,0.324 0.078,0.999 -0.324,1.015 -0.258,0.01 0.919,0.493 1.202,0.493 0.174,0 0.211,-0.087 0.123,-0.291 -0.07,-0.161 -0.185,-0.846 -0.257,-1.522 -0.071,-0.677 -0.209,-1.31 -0.305,-1.406 -0.241,-0.241 -2.039,-0.335 -2.348,-0.124 m 6.667,-0.01 c -1.035,0.281 -1.29,2.252 -0.385,2.977 0.49,0.392 2.361,0.576 2.135,0.21 -0.057,-0.092 -0.32,-0.167 -0.585,-0.167 -0.761,0 -1.306,-0.334 -1.499,-0.917 -0.342,-1.036 0.369,-1.916 1.548,-1.916 0.383,0 0.598,-0.067 0.536,-0.167 -0.114,-0.185 -1.103,-0.196 -1.75,-0.02 m 10.876,0.025 c -1.239,0.498 -1.292,2.6 -0.078,3.153 0.497,0.227 2.091,0.234 1.952,0.009 -0.057,-0.092 -0.402,-0.167 -0.767,-0.167 -2.067,0 -2.039,-2.598 0.03,-2.797 0.554,-0.053 0.772,-0.131 0.627,-0.223 -0.288,-0.182 -1.283,-0.168 -1.764,0.025 m 5.515,0.086 c -0.9,0.46 -1.029,1.963 -0.237,2.755 0.56,0.561 2.116,0.715 2.504,0.248 0.169,-0.204 0.066,-0.225 -0.716,-0.145 -0.834,0.086 -0.953,0.055 -1.365,-0.357 -0.597,-0.597 -0.411,-0.732 1.09,-0.792 l 1.25,-0.05 -0.038,-0.633 c -0.066,-1.117 -1.308,-1.629 -2.488,-1.026 m 3.984,-0.147 c -0.478,0.193 -0.153,0.335 0.601,0.263 1.036,-0.1 1.732,0.453 1.247,0.99 -0.255,0.281 -0.255,0.325 0.005,0.613 0.263,0.29 0.261,0.333 -0.037,0.701 -0.315,0.389 -0.314,0.393 0.099,0.607 0.781,0.405 1.094,0.297 0.798,-0.276 -0.153,-0.295 -0.255,-0.932 -0.255,-1.588 0,-1.023 -0.028,-1.106 -0.427,-1.258 -0.443,-0.168 -1.666,-0.2 -2.031,-0.052 m 5.042,0.056 c -0.365,0.157 -0.217,0.222 0.388,0.171 0.764,-0.063 1.028,0.415 1.028,1.855 0,1.196 0.029,1.307 0.334,1.307 0.3,0 0.333,-0.111 0.333,-1.113 0,-2.079 -0.693,-2.817 -2.083,-2.22 m -1.25,1.667 c 0,1.555 0.022,1.666 0.333,1.666 0.303,0 0.333,-0.111 0.333,-1.216 0,-0.7 0.082,-1.299 0.193,-1.41 0.251,-0.251 -0.101,-0.707 -0.546,-0.707 -0.286,0 -0.313,0.147 -0.313,1.667 m -6.002,-1.13 c 0.59,0.633 0.38,0.88 -0.751,0.88 -0.894,0 -1.003,-0.037 -1.048,-0.359 -0.113,-0.789 1.196,-1.168 1.799,-0.521 m -25.132,1.163 c -0.684,0.684 -0.017,1.63 1.134,1.609 0.412,-0.008 0.6,-0.047 0.416,-0.087 -1.044,-0.227 -1.449,-0.991 -0.791,-1.49 0.267,-0.203 0.255,-0.222 -0.134,-0.227 -0.233,-0.003 -0.515,0.085 -0.625,0.195 m 26.884,0.193 c -0.505,0.77 0.065,1.447 1.196,1.423 0.747,-0.016 0.766,-0.026 0.263,-0.145 -1.055,-0.251 -1.368,-0.903 -0.668,-1.392 l 0.375,-0.262 -0.454,-0.008 c -0.3,-0.006 -0.542,0.125 -0.712,0.384"
       inkscape:connector-curvature="0"
       style="fill:#1a1a1a;fill-rule:evenodd;stroke:none;filter:url(#filter818)"
       sodipodi:nodetypes="cscccccscsccccscsccsccccccscccccccccssscccccccccccccccccccccccccccccccsccccccccscccscccsccsccsccccscscccccscccccccscccccccccccsccccsssccssssccsccccccccccccccc" />
    <path
       id="path4"
       d="m 222.15052,221.72655 v 2.917 h 2.833 2.833 v -2.917 -2.916 h -2.833 -2.833 v 2.916"
       inkscape:connector-curvature="0"
       style="fill:#cccccc;fill-rule:evenodd;stroke:none"
       sodipodi:nodetypes="ccccccccc" />
  </g>
</svg>
