<?xml version="1.0" encoding="UTF-8" standalone="no"?>
<svg
   xmlns:dc="http://purl.org/dc/elements/1.1/"
   xmlns:cc="http://creativecommons.org/ns#"
   xmlns:rdf="http://www.w3.org/1999/02/22-rdf-syntax-ns#"
   xmlns:svg="http://www.w3.org/2000/svg"
   xmlns="http://www.w3.org/2000/svg"
   xmlns:sodipodi="http://sodipodi.sourceforge.net/DTD/sodipodi-0.dtd"
   xmlns:inkscape="http://www.inkscape.org/namespaces/inkscape"
   id="svg"
   version="1.1"
   width="52.507778"
   height="69.5"
   viewBox="0 0 52.507778 69.5"
   sodipodi:docname="coffeeMenge1.svg"
   inkscape:version="0.92.4 (5da689c313, 2019-01-14)">
  <metadata
     id="metadata13">
    <rdf:RDF>
      <cc:Work
         rdf:about="">
        <dc:format>image/svg+xml</dc:format>
        <dc:type
           rdf:resource="http://purl.org/dc/dcmitype/StillImage" />
        <dc:title></dc:title>
      </cc:Work>
    </rdf:RDF>
  </metadata>
  <defs
     id="defs11">
    <filter
       style="color-interpolation-filters:sRGB;"
       inkscape:label="Invert"
       id="filter818">
      <feColorMatrix
         values="-1 0 0 0 1 0 -1 0 0 1 0 0 -1 0 1 -0.21 -0.72 -0.07 2 0 "
         result="color2"
         id="feColorMatrix816" />
    </filter>
  </defs>
  <sodipodi:namedview
     pagecolor="#ffffff"
     bordercolor="#666666"
     borderopacity="1"
     objecttolerance="10"
     gridtolerance="10"
     guidetolerance="10"
     inkscape:pageopacity="0"
     inkscape:pageshadow="2"
     inkscape:window-width="1920"
     inkscape:window-height="1017"
     id="namedview9"
     showgrid="false"
     inkscape:snap-nodes="false"
     inkscape:zoom="7"
     inkscape:cx="27.355976"
     inkscape:cy="36.565511"
     inkscape:window-x="-8"
     inkscape:window-y="-8"
     inkscape:window-maximized="1"
     inkscape:current-layer="svgg" />
  <g
     id="svgg"
     transform="translate(-156.94482,-126.43636)">
    <path
       id="path0-7-3"
       d="m 190.3666,137.72736 c 0.073,1.627 0.179,4.234 0.234,5.792 l 0.102,2.833 h 1.25 1.25 l 0.109,-1.916 c 0.06,-1.055 0.165,-3.661 0.234,-5.792 l 0.126,-3.875 h -1.719 -1.719 l 0.133,2.958 m 0.529,9.65599 c -0.251,0.068 -0.288,0.187 -0.201,0.65 0.058,0.312 0.174,2.912 0.258,5.777 0.083,2.865 0.203,5.865 0.267,6.667 l 0.116,1.459 h 0.634 c 0.588,0 0.64,-0.04 0.715,-0.542 0.082,-0.555 0.492,-11.006 0.509,-12.958 l 0.009,-1.084 -1,-0.025 c -0.55,-0.015 -1.138,0.011 -1.307,0.056 m -18.099,3.057 c -4.151,1.493 -7.282,7.828 -5.614,11.355 0.954,2.017 1.236,1.858 3.9,-2.193 4.326,-6.579 4.736,-7.166 4.999,-7.166 0.097,0 0.204,-0.083 0.238,-0.183 0.033,-0.101 0.565,-0.224 1.181,-0.273 1.254,-0.101 1.268,-0.235 0.105,-0.97 -1.432,-0.903 -3.274,-1.122 -4.809,-0.57 m 4.489,3.629 c -0.441,0.3 -0.985,0.878 -0.994,1.057 -0.006,0.115 -5.042,7.763 -5.33,8.094 -0.787,0.904 0.138,1.882 1.777,1.882 3.831,0 7.536,-4.169 7.565,-8.513 0.015,-2.298 -1.492,-3.556 -3.018,-2.52 m 14.114,8.825 c -0.246,0.422 0.281,10.87501 0.548,10.87501 0.294,0 0.835,-10.43401 0.564,-10.87301 -0.102,-0.164 -1.017,-0.166 -1.112,-0.002 m -12.85,16.09501 c -0.282,0.205 -0.283,0.237 -0.02,0.5 0.284,0.284 23.688,0.45 24.715,0.175 0.431,-0.116 0.505,-0.643 0.111,-0.794 -0.587,-0.225 -24.492,-0.111 -24.806,0.119 m 2.516,2.847 c -0.054,0.141 -0.032,0.297 0.049,0.347 0.218,0.135 0.403,-0.249 0.212,-0.44 -0.106,-0.106 -0.197,-0.074 -0.261,0.093 m -1.113,1.766 c 0,0.092 0.108,0.167 0.24,0.167 0.132,0 0.287,-0.075 0.343,-0.167 0.057,-0.091 -0.051,-0.166 -0.24,-0.166 -0.189,0 -0.343,0.075 -0.343,0.166 m 1.667,0 c 0,0.092 0.112,0.167 0.25,0.167 0.137,0 0.25,-0.075 0.25,-0.167 0,-0.091 -0.113,-0.166 -0.25,-0.166 -0.138,0 -0.25,0.075 -0.25,0.166 m -2.227,1.75 c 0.052,0.138 0.163,0.25 0.244,0.25 0.082,0 0.149,-0.112 0.149,-0.25 0,-0.137 -0.11,-0.25 -0.244,-0.25 -0.15,0 -0.208,0.098 -0.149,0.25 m 3.333,0 c 0.053,0.138 0.116,0.25 0.141,0.25 0.025,0 0.139,-0.112 0.253,-0.25 0.173,-0.208 0.15,-0.25 -0.141,-0.25 -0.242,0 -0.319,0.077 -0.253,0.25 m -4.326,1.374 c -0.178,0.3 0.744,2.638 1.183,3.001 1.019,0.841 3.626,0.415 4.03,-0.658 0.114,-0.303 0.268,-0.7 0.342,-0.883 0.074,-0.184 0.176,-0.465 0.228,-0.625 0.085,-0.269 0.455,-0.292 4.61,-0.292 4.213,0 4.514,-0.02 4.462,-0.292 -0.06,-0.309 -14.674,-0.557 -14.855,-0.251"
       inkscape:connector-curvature="0"
       style="fill:#1a1a1a;fill-rule:evenodd;stroke:none;filter:url(#filter818)"
       sodipodi:nodetypes="ccccccccccccccccsccccccccscccccccscccscccscccccsccscsccsssccsssccscsccccccscc" />
    <path
       id="path2-4-3"
       d="m 196.59975,188.38857 v 2.917 h 2.916 2.917 v -2.917 -2.917 h -2.917 -2.916 v 2.917"
       inkscape:connector-curvature="0"
       style="fill:#cccccc;fill-rule:evenodd;stroke:none"
       sodipodi:nodetypes="ccccccccc" />
    <path
       id="path2-4-4"
       d="m 196.71075,168.91657 c -0.061,0.061 -0.111,1.373 -0.111,2.916 v 2.806 h 2.916 2.917 v -2.917 -2.916 h -2.806 c -1.543,0 -2.855,0.05 -2.916,0.111"
       inkscape:connector-curvature="0"
       style="fill:#fc7c24;fill-rule:evenodd;stroke:none"
       sodipodi:nodetypes="cscccccsc" />
    <path
       id="path2-4-2"
       d="m 196.67475,152.34957 c -0.046,0.12 -0.063,1.453 -0.038,2.962 l 0.046,2.744 h 2.833 2.834 v -2.917 -2.917 l -2.796,-0.045 c -2.186,-0.036 -2.813,0.002 -2.879,0.173"
       inkscape:connector-curvature="0"
       style="fill:#cccccc;fill-rule:evenodd;stroke:none"
       sodipodi:nodetypes="ccccccccc" />
    <path
       id="path2-4-1"
       d="m 196.71075,135.24957 c -0.061,0.061 -0.111,1.374 -0.111,2.917 v 2.805 h 2.916 2.917 v -2.916 -2.917 h -2.806 c -1.543,0 -2.855,0.05 -2.916,0.111"
       inkscape:connector-curvature="0"
       style="fill:#cccccc;fill-rule:evenodd;stroke:none"
       sodipodi:nodetypes="cscccccsc" />
  </g>
</svg>
