<?xml version="1.0" encoding="UTF-8" standalone="no"?>
<svg
   xmlns:dc="http://purl.org/dc/elements/1.1/"
   xmlns:cc="http://creativecommons.org/ns#"
   xmlns:rdf="http://www.w3.org/1999/02/22-rdf-syntax-ns#"
   xmlns:svg="http://www.w3.org/2000/svg"
   xmlns="http://www.w3.org/2000/svg"
   xmlns:sodipodi="http://sodipodi.sourceforge.net/DTD/sodipodi-0.dtd"
   xmlns:inkscape="http://www.inkscape.org/namespaces/inkscape"
   id="svg"
   version="1.1"
   width="69.810722"
   height="55.084999"
   viewBox="0 0 69.810722 55.084999"
   sodipodi:docname="coffee2.svg"
   inkscape:version="0.92.4 (5da689c313, 2019-01-14)">
  <metadata
     id="metadata13">
    <rdf:RDF>
      <cc:Work
         rdf:about="">
        <dc:format>image/svg+xml</dc:format>
        <dc:type
           rdf:resource="http://purl.org/dc/dcmitype/StillImage" />
        <dc:title />
      </cc:Work>
    </rdf:RDF>
  </metadata>
  <defs
     id="defs11">
    <filter
       style="color-interpolation-filters:sRGB;"
       inkscape:label="Invert"
       id="filter843">
      <feColorMatrix
         values="-1 0 0 0 1 0 -1 0 0 1 0 0 -1 0 1 -0.21 -0.72 -0.07 2 0 "
         result="color2"
         id="feColorMatrix841" />
    </filter>
  </defs>
  <sodipodi:namedview
     pagecolor="#ffffff"
     bordercolor="#666666"
     borderopacity="1"
     objecttolerance="10"
     gridtolerance="10"
     guidetolerance="10"
     inkscape:pageopacity="0"
     inkscape:pageshadow="2"
     inkscape:window-width="1920"
     inkscape:window-height="1017"
     id="namedview9"
     showgrid="false"
     inkscape:snap-nodes="false"
     inkscape:zoom="9.8994949"
     inkscape:cx="55.935624"
     inkscape:cy="37.011215"
     inkscape:window-x="-8"
     inkscape:window-y="-8"
     inkscape:window-maximized="1"
     inkscape:current-layer="svgg" />
  <g
     id="svgg"
     transform="translate(-73.256362,-126.80824)">
    <path
       inkscape:connector-curvature="0"
       style="fill:#3b3035;fill-rule:evenodd;stroke:none;filter:url(#filter843)"
       id="path0-3-3"
       d="m 97.168164,135.72358 c -0.16,0.418 0.056,5.037 0.281,5.993 0.516,2.197 0.745,2.906 1.343998,4.166 0.618,1.302 0.992,1.845 1.919988,2.792 l 0.939,0.958 h 5.277 5.276 l 0.81,-0.791 c 1.267,-1.239 1.993,-2.479 2.754,-4.708 l 0.484,-1.417 1.387,-0.18 c 5.538,-0.719 4.893,-7.07 -0.717,-7.07 h -1.479 v 1.747 c 0,0.961 -0.082,2.105 -0.183,2.542 -0.444,1.93 -0.714,2.979 -0.826,3.211 -0.066,0.137 -0.259,0.55 -0.427,0.916 -0.438,0.954 -1.674,2.589 -2.363,3.125 l -0.588,0.459 h -4.117 -4.117 l -0.599,-0.477 c -2.366988,-1.881 -3.662986,-5.363 -3.824986,-10.273 l -0.038,-1.167 -0.543,-0.052 c -0.387,-0.038 -0.574,0.027 -0.65,0.226 m 3.174986,1.145 c -0.051,0.132 -0.067,0.414 -0.037,0.627 l 0.055,0.387 h 6.583 6.583 v -0.583 -0.583 l -6.546,-0.044 c -5.57,-0.037 -6.56,-0.008 -6.638,0.196 m 18.895,0.668 c 1.494,1.369 0.59,3.43 -1.564,3.567 l -1.114,0.071 0.113,-1.562 c 0.197,-2.7 0.174,-2.646 1.125,-2.646 0.698,0 0.908,0.083 1.44,0.57 m -18.794,2.519 c 0,0.143 0.114,0.482 0.254,0.752 l 0.255,0.492 h 5.975 c 6.455,0 6.266,0.027 6.375,-0.917 l 0.058,-0.5 -6.459,-0.043 c -5.761,-0.039 -6.458,-0.016 -6.458,0.216 m -3.741986,10.666 c -0.142,0.34 -0.258,0.667 -0.258,0.726 0,0.123 0.946,0.544 1.917,0.853 0.365998,0.116 0.815998,0.266 0.999998,0.332 4.354988,1.574 10.810988,1.574 15.165988,0 0.184,-0.066 0.634,-0.214 1,-0.329 1.351,-0.424 1.75,-0.682 1.75,-1.135 0,-0.88 -0.348,-1.016 -1.707,-0.665 -6.06,1.564 -13.834,1.44 -18.325986,-0.291 -0.215,-0.083 -0.345,0.04 -0.542,0.509 m 9.365986,7.453 c -0.371,0.283 -0.826,1.656 -0.618,1.864 0.088,0.089 0.161,0.826 0.161,1.64 0,1.318 0.031,1.473 0.291,1.423 0.249,-0.048 0.299,-0.284 0.34,-1.596 l 0.048,-1.539 h 0.654 0.654 l 0.048,1.541 c 0.039,1.238 0.097,1.542 0.298,1.542 0.201,0 0.259,-0.304 0.298,-1.542 0.043,-1.387 0.08,-1.541 0.365,-1.541 0.465,0 0.573,-0.301 0.131,-0.363 -0.646,-0.092 -0.615,-0.922 0.045,-1.199 0.42,-0.177 0.471,-0.245 0.248,-0.33 -0.586,-0.226 -1.063,0.067 -1.355,0.833 -0.26,0.68 -0.327,0.738 -0.8,0.692 -0.655,-0.064 -0.878,-1.021 -0.274,-1.179 0.188,-0.05 0.342,-0.172 0.342,-0.272 0,-0.247 -0.539,-0.231 -0.876,0.026 m -7.373988,0.125 c -0.057,0.092 -0.229998,0.169 -0.384998,0.172 -1.161,0.023 -1.873,2.006 -1.196,3.332 0.585,1.147 3.284986,1.909 3.461986,0.978 0.043,-0.223 -0.082,-0.256 -0.747988,-0.198 -1.055,0.092 -1.880998,-0.349 -2.194998,-1.171 -0.611,-1.604 0.751,-3.076 2.492986,-2.693 0.557,0.122 0.663,-0.147 0.163,-0.414 -0.410988,-0.22 -1.458988,-0.224 -1.593988,-0.006 m 3.645988,1.277 c -1.226,0.257 -1.59,2.222 -0.569,3.074 1.436,1.2 3.283,0.012 2.92,-1.879 -0.168,-0.874 -1.253,-1.426 -2.351,-1.195 m 8.666,0.003 c -1.929,0.387 -1.313,3.553 0.692,3.553 0.694,0 1.433,-0.368 1.201,-0.6 -0.07,-0.07 -0.216,-0.039 -0.324,0.07 -0.422,0.422 -1.8,0.032 -2.033,-0.575 -0.168,-0.437 0.194,-0.556 1.69,-0.559 1.331,-0.002 1.375,0.01 1.479,0.421 0.237,0.947 1.821,1.565 2.744,1.071 0.531,-0.284 0.364,-0.476 -0.25,-0.287 -0.68,0.208 -1.505,-0.062 -1.785,-0.585 -0.255,-0.477 0.061,-0.617 1.399,-0.62 l 1.125,-0.002 v -0.641 c 0,-1.648 -2.456,-1.802 -3.127,-0.197 l -0.242,0.58 -0.316,-0.39 c -0.173,-0.214 -0.315,-0.475 -0.315,-0.581 0,-0.41 -1.178,-0.81 -1.938,-0.658 m -7.074,0.826 c 0.883,1.122 -0.256,2.781 -1.476,2.15 -0.729,-0.377 -0.937,-1.48 -0.419,-2.219 0.388,-0.555 1.434,-0.517 1.895,0.069 m 8.447,-0.148 c 0.497,0.655 0.304,0.875 -0.768,0.875 -0.933,0 -1,-0.026 -1,-0.383 0,-0.774 1.282,-1.131 1.768,-0.492 m 3.892,0.031 c 0.375,0.701 0.236,0.844 -0.817,0.844 -1.118,0 -1.324,-0.166 -0.937,-0.757 0.35,-0.534 1.485,-0.591 1.754,-0.087 m -16.284988,8.176 c -0.645,0.393 -0.696,0.57 -0.134,0.462 0.546988,-0.104 0.591988,0.066 0.591988,2.22 0,1.709 0.02,1.82 0.333,1.82 0.316,0 0.334,-0.111 0.334,-2.153 0,-2.87 -0.061,-2.998 -1.124988,-2.349 m 14.499988,-0.055 c -0.115,0.047 -0.209,0.199 -0.209,0.338 0,0.179 0.086,0.217 0.292,0.128 1.142,-0.496 2.042,-0.125 2.042,0.842 0,0.552 -0.269,0.903 -1.607,2.098 -0.784,0.7 -0.978,1.083 -0.619,1.22 0.33,0.127 2.036,0.121 2.517,-0.008 0.704,-0.188 0.377,-0.395 -0.625,-0.395 -1.232,0 -1.255,-0.145 -0.184,-1.151 2.02,-1.897 0.88,-4.075 -1.607,-3.072 m -18.454986,1.217 c -0.049,0.08 0.023,0.259 0.161,0.398 0.139,0.138 0.252,0.332 0.252,0.43 0,0.098 0.066,0.178 0.147,0.178 0.441,0 0.319,0.993 -0.188,1.53 -0.609,0.646 -0.68,0.804 -0.354,0.797 0.173,-0.003 0.525,-0.313 0.791,-0.699 l 0.48,-0.692 0.616,0.722 c 0.784998,0.92 1.224998,0.855 0.52,-0.077 -0.46,-0.608 -0.695,-1.581 -0.381,-1.581 0.072,0 0.26,-0.22 0.419,-0.488 0.422998,-0.716 0.053,-0.792 -0.476,-0.098 -0.545,0.715 -0.728,0.729 -1.157,0.088 -0.362,-0.54 -0.687,-0.739 -0.83,-0.508 m 14.898986,0.706 c 0.623,0.847 0.643,1.233 0.097,1.868 -0.477,0.555 -0.523,0.766 -0.166,0.766 0.137,0 0.25,-0.057 0.25,-0.125 0,-0.069 0.194,-0.35 0.432,-0.625 l 0.431,-0.5 0.545,0.646 c 0.747,0.888 1.055,0.721 0.425,-0.229 -0.508,-0.768 -0.523,-1.169 -0.06,-1.631 0.126,-0.126 0.306,-0.373 0.4,-0.549 0.303,-0.567 -0.214,-0.372 -0.769,0.29 l -0.513,0.61 -0.465,-0.61 c -0.712,-0.933 -1.296,-0.848 -0.607,0.089"
       sodipodi:nodetypes="cccccccccccscscccccccccccccccccccccccccsccccscccccsccccscccccsccccccscsccccccscccccccccccccccsscccccccccscccsccccccssccsccccsssccscscccsccccssccccccsccccccsscccccccccc" />
    <path
       id="path2-2-7"
       d="m 102.69758,170.70607 0.046,2.875 h 2.916 2.917 l 0.046,-2.875 0.045,-2.875 h -3.008 -3.008 l 0.046,2.875"
       inkscape:connector-curvature="0"
       style="fill:#ff6600;fill-rule:evenodd;stroke:none"
       sodipodi:nodetypes="ccccccccc" />
    <path
       id="path2-2-7-1"
       d="m 88.042346,170.7058 0.046,2.875 h 2.917 2.916 l 0.046,-2.875 0.046,-2.875 h -3.008 -3.008 l 0.045,2.875"
       inkscape:connector-curvature="0"
       style="fill:#cccccc;fill-rule:evenodd;stroke:none"
       sodipodi:nodetypes="ccccccccc" />
  </g>
</svg>
