<?xml version="1.0" encoding="UTF-8" standalone="no"?>
<svg
   xmlns:dc="http://purl.org/dc/elements/1.1/"
   xmlns:cc="http://creativecommons.org/ns#"
   xmlns:rdf="http://www.w3.org/1999/02/22-rdf-syntax-ns#"
   xmlns:svg="http://www.w3.org/2000/svg"
   xmlns="http://www.w3.org/2000/svg"
   xmlns:sodipodi="http://sodipodi.sourceforge.net/DTD/sodipodi-0.dtd"
   xmlns:inkscape="http://www.inkscape.org/namespaces/inkscape"
   id="svg"
   version="1.1"
   width="69.837425"
   height="55.136883"
   viewBox="0 0 69.837425 55.136882"
   sodipodi:docname="espresso1.svg"
   inkscape:version="0.92.4 (5da689c313, 2019-01-14)">
  <metadata
     id="metadata13">
    <rdf:RDF>
      <cc:Work
         rdf:about="">
        <dc:format>image/svg+xml</dc:format>
        <dc:type
           rdf:resource="http://purl.org/dc/dcmitype/StillImage" />
        <dc:title></dc:title>
      </cc:Work>
    </rdf:RDF>
  </metadata>
  <defs
     id="defs11">
    <filter
       style="color-interpolation-filters:sRGB;"
       inkscape:label="Invert"
       id="filter816">
      <feColorMatrix
         values="-1 0 0 0 1 0 -1 0 0 1 0 0 -1 0 1 -0.21 -0.72 -0.07 2 0 "
         result="color2"
         id="feColorMatrix814" />
    </filter>
  </defs>
  <sodipodi:namedview
     pagecolor="#ffffff"
     bordercolor="#666666"
     borderopacity="1"
     objecttolerance="10"
     gridtolerance="10"
     guidetolerance="10"
     inkscape:pageopacity="0"
     inkscape:pageshadow="2"
     inkscape:window-width="1920"
     inkscape:window-height="1017"
     id="namedview9"
     showgrid="false"
     inkscape:snap-nodes="false"
     inkscape:zoom="9.8994948"
     inkscape:cx="25.878745"
     inkscape:cy="17.313943"
     inkscape:window-x="-8"
     inkscape:window-y="-8"
     inkscape:window-maximized="1"
     inkscape:current-layer="svgg" />
  <g
     id="svgg"
     transform="translate(4.153007,-126.56891)">
    <g
       id="g899">
      <path
         sodipodi:nodetypes="ccsccccscssscsccccssccccscccccccsscscccccscccccccccccccccccccccccccccccssscsccscccccccccscccccsccscccscccccccsccccccccccsccsccccccssccccccccccscccccccccccscscsccsccccccccscccccsscc"
         d="m 22.920481,137.2173 c 0,3.635 1.247,7.562 3.152,9.927 1.372,1.703 1.414,1.717 4.974,1.717 h 3.075 l 1.116,-1.125 c 0.837,-0.845 1.318,-1.53 1.931,-2.75 l 0.817,-1.625 h 1.291 c 0.71,0 1.338,-0.075 1.394,-0.167 0.057,-0.091 0.235,-0.166 0.397,-0.166 0.982,0 2.264,-1.887 2.264,-3.334 0,-2.321 -1.597,-3.666 -4.353,-3.666 h -1.558 v 1.154 c 0,1.409 -0.513,3.971 -1.005,5.012 -0.994,2.108 -1.926,3.391 -2.898,3.992 -0.853,0.527 -4.392,0.508 -5.154,-0.028 -1.284,-0.902 -2.469,-2.681 -3.086,-4.63 -0.365,-1.153 -0.857,-3.408 -0.857,-3.928 0,-1.289 -0.154,-1.572 -0.854,-1.572 h -0.646 v 1.189 m 17.765,0.477 c 0.01,0 0.165,0.132 0.344,0.292 1.737,1.552 0.765,3.875 -1.622,3.875 h -0.851 l 0.097,-0.958 c 0.053,-0.527 0.143,-1.471 0.201,-2.096 0.118,-1.276 0.378,-1.525 1.314,-1.256 0.275,0.079 0.508,0.143 0.517,0.143 m -13.651,2.775 c -0.169,0.17 0.065,0.953 0.355,1.184 0.19,0.151 1.188,0.208 3.637,0.208 3.702,0 3.894,-0.055 3.894,-1.12 v -0.38 h -3.889 c -2.138,0 -3.937,0.049 -3.997,0.108 m 1.386,3.211 c 0,0.603 1.037,1.014 2.555,1.012 1.63,-0.003 1.648,-0.008 2.266,-0.707 l 0.404,-0.457 h -2.612 c -1.461,0 -2.613,0.067 -2.613,0.152 m -8.16,6.003 c -0.316,0.589 -0.207,1.082 0.285,1.294 5.52,2.377 12.465,2.692 18.086,0.821 2.617,-0.872 2.849,-1.012 2.721,-1.654 -0.159,-0.792 -0.316,-0.868 -1.303,-0.628 -0.483,0.118 -1.179,0.28 -1.545,0.36 -0.367,0.079 -1.176,0.255 -1.797,0.391 -3.126,0.68 -9.072,0.671 -12.115,-0.019 -0.599,-0.135 -1.426,-0.309 -1.838,-0.386 -0.413,-0.076 -0.961,-0.22 -1.22,-0.32 -0.688,-0.266 -1.08,-0.222 -1.274,0.141 m -2.267,8.895 c -0.046,0.12 -0.062,1.188 -0.036,2.375 l 0.047,2.158 1.641,0.048 c 1.279,0.037 1.625,0.001 1.57,-0.167 -0.047,-0.14 -0.468,-0.232 -1.218,-0.264 -2.148,-0.094 -2.368,-1.61 -0.251,-1.732 1.364,-0.078 1.287,-0.441 -0.106,-0.502 l -1.136,-0.05 v -0.75 -0.75 l 1.237,-0.083 c 0.778,-0.052 1.262,-0.161 1.305,-0.292 0.101,-0.305 -2.936,-0.296 -3.053,0.009 m 8.888,1.045 c -0.063,0.062 -0.473,0.128 -0.912,0.147 l -0.799,0.033 v 2.224 c 0,1.63 0.056,2.241 0.209,2.292 0.144,0.048 0.208,-0.141 0.208,-0.616 0,-0.722 0.346,-1.062 0.711,-0.697 0.809,0.808 2.289,-0.246 2.289,-1.631 0,-1.171 -1.128,-2.33 -1.706,-1.752 m 5.541,0.054 c -0.473,0.131 -1.168,1.067 -1.168,1.572 0,1.435 1.605,2.436 2.844,1.773 0.537,-0.288 0.361,-0.475 -0.265,-0.283 -0.66,0.203 -1.668,-0.147 -1.859,-0.645 -0.156,-0.406 0.252,-0.561 1.488,-0.564 l 1.125,-0.002 -0.004,-0.542 c -0.007,-1.016 -1.015,-1.627 -2.161,-1.309 m 10.119,0.018 c -1.45,0.436 -1.563,2.587 -0.173,3.31 1.189,0.618 2.552,-0.181 2.552,-1.497 0,-1.541 -0.928,-2.249 -2.379,-1.813 m -20.604,0.446 c -0.272,0.598 0.171,1.209 1.057,1.458 1.327,0.372 1.107,1.259 -0.314,1.265 -0.498,0.001 -0.61,0.045 -0.426,0.164 0.491,0.317 1.49,0.191 1.924,-0.243 0.678,-0.678 0.422,-1.27 -0.681,-1.575 -1.46,-0.403 -1.527,-1.068 -0.117,-1.149 1.236,-0.072 1.088,-0.367 -0.183,-0.367 -0.984,0 -1.07,0.031 -1.26,0.447 m 7.428,-0.336 c -0.221,0.221 -0.123,3.006 0.112,3.201 0.346,0.287 0.443,0.054 0.443,-1.058 0,-1.06 0.131,-1.348 0.821,-1.807 0.35,-0.233 0.366,-0.283 0.123,-0.376 -0.155,-0.059 -0.396,-0.013 -0.536,0.104 -0.193,0.16 -0.302,0.164 -0.448,0.018 -0.22,-0.219 -0.356,-0.241 -0.515,-0.082 m 5.998,0.194 c -0.551,0.608 -0.201,1.175 0.975,1.582 1.239,0.429 1.163,1.28 -0.115,1.28 -0.395,0 -0.615,0.066 -0.553,0.167 0.228,0.369 1.543,0.188 1.896,-0.261 0.562,-0.715 0.253,-1.162 -1.192,-1.723 -1.07,-0.416 -0.715,-1.084 0.552,-1.04 0.544,0.02 0.814,-0.031 0.746,-0.14 -0.192,-0.311 -2.001,-0.205 -2.309,0.135 m 3.153,-0.043 c -0.62,0.62 -0.144,1.388 1.02,1.644 1.303,0.286 1.064,1.329 -0.282,1.234 -0.63,-0.044 -0.768,-0.011 -0.633,0.152 0.531,0.639 2.299,0.039 2.299,-0.781 0,-0.553 -0.152,-0.689 -1.208,-1.079 -1.268,-0.468 -1.068,-1.175 0.318,-1.123 0.398,0.015 0.724,-0.048 0.724,-0.141 0,-0.285 -1.941,-0.204 -2.238,0.094 m -10.856,0.288 c 1.015,1.015 -0.005,3.066 -1.205,2.425 -0.83,-0.444 -0.996,-1.634 -0.338,-2.428 0.23,-0.277 1.265,-0.276 1.543,0.003 m 6.254,0.106 c 0.383,0.714 0.242,0.844 -0.91,0.844 -0.902,0 -1.084,-0.046 -1.084,-0.278 0,-0.816 1.615,-1.274 1.994,-0.566 m 10.389,0.373 c 0.596,1.22 -0.532,2.5 -1.679,1.907 -0.529,-0.273 -0.816,-1.094 -0.598,-1.705 0.403,-1.131 1.764,-1.251 2.277,-0.202 m -19.716,7.763 c -0.653,0.326 -0.699,0.653 -0.081,0.572 l 0.404,-0.053 0.047,1.968 c 0.041,1.719 0.083,1.974 0.338,2.023 0.266,0.051 0.292,-0.137 0.292,-2.109 0,-2.862 -0.013,-2.894 -1,-2.401 m 14.375,-0.015 c -0.445,0.18 -0.23,0.557 0.219,0.386 2.205,-0.838 2.595,0.926 0.614,2.778 -1.557,1.456 -1.514,1.594 0.474,1.525 1.576,-0.055 1.854,-0.353 0.403,-0.432 -1.14,-0.062 -1.139,-0.077 0.082,-1.313 1.866,-1.89 0.629,-3.921 -1.792,-2.944 m -18.419,1.157 c -0.056,0.055 0.119,0.403 0.388,0.775 0.606,0.836 0.606,0.914 -0.011,1.765 -0.568,0.785 -0.591,0.86 -0.263,0.86 0.13,0 0.398,-0.263 0.597,-0.584 0.2,-0.324 0.496,-0.583 0.666,-0.583 0.17,0 0.467,0.259 0.667,0.583 0.198,0.321 0.467,0.584 0.597,0.584 0.34,0 0.29,-0.167 -0.268,-0.905 -0.63,-0.832 -0.485,-1.68 0.39,-2.283 0.084,-0.058 0.05,-0.14 -0.075,-0.183 -0.125,-0.043 -0.48,0.188 -0.79,0.513 l -0.562,0.592 -0.496,-0.617 c -0.491,-0.613 -0.648,-0.709 -0.84,-0.517 m 14.544,0.164 c 0,0.054 0.239,0.43 0.53,0.836 l 0.53,0.738 -0.53,0.753 c -0.6,0.851 -0.619,0.909 -0.301,0.909 0.125,0 0.406,-0.262 0.625,-0.583 0.489,-0.718 0.489,-0.718 1.114,0.014 0.287,0.336 0.629,0.573 0.782,0.541 0.244,-0.05 0.241,-0.09 -0.032,-0.389 -1.011,-1.109 -1.011,-1.428 0,-2.542 0.306,-0.338 0.311,-0.375 0.049,-0.375 -0.302,0 -0.767,0.373 -0.767,0.615 0,0.541 -0.674,0.52 -1.097,-0.034 -0.383,-0.503 -0.903,-0.781 -0.903,-0.483"
         id="path0-3-3-5"
         style="fill:#3b3035;fill-rule:evenodd;stroke:none;filter:url(#filter816)"
         inkscape:connector-curvature="0" />
    </g>
    <path
       id="path2-2-7"
       d="m 27.869985,170.49323 0.046,2.875 h 2.916 2.917 l 0.046,-2.875 0.045,-2.875 h -3.008 -3.008 l 0.046,2.875"
       inkscape:connector-curvature="0"
       style="fill:#cccccc;fill-rule:evenodd;stroke:none"
       sodipodi:nodetypes="ccccccccc" />
    <path
       id="path2-2-7-1"
       d="m 13.214751,170.49296 0.046,2.875 h 2.917 2.916 l 0.046,-2.875 0.046,-2.875 h -3.008 -3.008 l 0.045,2.875"
       inkscape:connector-curvature="0"
       style="fill:#ff6600;fill-rule:evenodd;stroke:none"
       sodipodi:nodetypes="ccccccccc" />
  </g>
</svg>
