<?xml version="1.0" encoding="UTF-8" standalone="no"?>
<svg
   xmlns:dc="http://purl.org/dc/elements/1.1/"
   xmlns:cc="http://creativecommons.org/ns#"
   xmlns:rdf="http://www.w3.org/1999/02/22-rdf-syntax-ns#"
   xmlns:svg="http://www.w3.org/2000/svg"
   xmlns="http://www.w3.org/2000/svg"
   xmlns:sodipodi="http://sodipodi.sourceforge.net/DTD/sodipodi-0.dtd"
   xmlns:inkscape="http://www.inkscape.org/namespaces/inkscape"
   id="svg"
   version="1.1"
   width="69.760574"
   height="55.050003"
   viewBox="0 0 69.760574 55.050003"
   sodipodi:docname="hotWater1.svg"
   inkscape:version="0.92.4 (5da689c313, 2019-01-14)">
  <metadata
     id="metadata13">
    <rdf:RDF>
      <cc:Work
         rdf:about="">
        <dc:format>image/svg+xml</dc:format>
        <dc:type
           rdf:resource="http://purl.org/dc/dcmitype/StillImage" />
        <dc:title></dc:title>
      </cc:Work>
    </rdf:RDF>
  </metadata>
  <defs
     id="defs11">
    <filter
       style="color-interpolation-filters:sRGB;"
       inkscape:label="Invert"
       id="filter818">
      <feColorMatrix
         values="-1 0 0 0 1 0 -1 0 0 1 0 0 -1 0 1 -0.21 -0.72 -0.07 2 0 "
         result="color2"
         id="feColorMatrix816" />
    </filter>
  </defs>
  <sodipodi:namedview
     pagecolor="#ffffff"
     bordercolor="#666666"
     borderopacity="1"
     objecttolerance="10"
     gridtolerance="10"
     guidetolerance="10"
     inkscape:pageopacity="0"
     inkscape:pageshadow="2"
     inkscape:window-width="1920"
     inkscape:window-height="1017"
     id="namedview9"
     showgrid="false"
     inkscape:snap-nodes="false"
     inkscape:zoom="7"
     inkscape:cx="42.190075"
     inkscape:cy="25.89763"
     inkscape:window-x="-8"
     inkscape:window-y="-8"
     inkscape:window-maximized="1"
     inkscape:current-layer="svgg" />
  <g
     id="svgg"
     transform="translate(5.4552564,-188.00112)">
    <path
       inkscape:connector-curvature="0"
       style="fill:#3b3035;fill-rule:evenodd;stroke:none;filter:url(#filter818)"
       id="path0-3-8"
       d="m 33.200462,196.98569 c -1.505,1.442 -1.667,2.718 -0.546,4.313 0.187,0.267 0.492,0.792 0.676,1.167 0.351,0.714 1.581999,1.146 1.581999,0.555 0,-0.32 -0.638999,-1.609 -1.093999,-2.208 -0.788,-1.037 -0.741,-1.82 0.17,-2.814 0.685999,-0.749 0.659999,-0.651 0.335999,-1.278 -0.311999,-0.603 -0.187999,-0.632 -1.123999,0.265 m -4.157,0.225 c -1.34,1.491 -1.384,2.595 -0.174,4.388 0.266,0.393 0.581,0.959 0.701,1.259 0.274,0.685 0.378,0.746 0.911,0.544 0.443,-0.169 0.614,-0.873 0.264,-1.089 -0.092,-0.057 -0.167,-0.22 -0.167,-0.363 0,-0.142 -0.262,-0.617 -0.583,-1.054 -0.459,-0.625 -0.583,-0.952 -0.583,-1.531 0,-0.623 0.09,-0.824 0.583,-1.302 0.598,-0.58 0.737,-1.113 0.383,-1.467 -0.339,-0.339 -0.575,-0.23 -1.335,0.615 m -3.888,0.415 c -1.264,1.32 -1.361,2.634 -0.312,4.233 0.318,0.483 0.716,1.233 0.886,1.666 0.241,0.618 0.399,0.799 0.731,0.839 1.026,0.125 0.691,-1.635 -0.645,-3.386 -0.611,-0.802 -0.539,-1.507 0.255,-2.468 1.176,-1.423 0.359,-2.213 -0.915,-0.884 m -4.687,9.217 c 0.168,4.475 1.158,7.693 2.939,9.552 1.171,1.222 0.878,1.168 6.333,1.164 l 4.921999,-0.005 0.693,-0.636 c 0.771,-0.706 1.663003,-2.045 2.126003,-3.188 0.167,-0.413 0.366,-0.9 0.441,-1.084 0.075,-0.183 0.184,-0.572 0.241,-0.863 0.146,-0.747 0.333,-0.843 1.778,-0.913 4.763,-0.232 4.28,-6.389 -0.502,-6.39 h -1.611 l -0.039,0.5 c -0.414,5.23 -1.166003,7.505 -3.149003,9.536 l -1.021999,1.047 h -3.864 c -4.184,0 -4.236,-0.01 -5.135,-0.955 -1.816,-1.91 -2.756,-4.507 -3.004,-8.295 l -0.12,-1.833 -0.56,-0.054 -0.56,-0.054 0.093,2.471 m 10.444,-1.541 c -0.505,0.109 -1.029,0.245 -1.167,0.305 -1.534,0.66 -4.389,0.82 -5.681,0.319 -0.667,-0.259 -0.898,-0.023 -0.665,0.683 0.163,0.493 0.292,0.603 0.812,0.697 1.355,0.243 3.932,0.289 4.606,0.083 0.373,-0.114 0.982,-0.303 1.352,-0.42 1.763,-0.555 3.645,-0.609 5.186999,-0.149 0.499,0.149 0.845,-0.467 0.56,-1 -0.332,-0.619 -3.164999,-0.912 -5.003999,-0.518 m 10.172002,0.803 c 1.7,1.149 0.523,3.77 -1.614,3.594 l -0.642,-0.053 0.061,-1.833 c 0.034,-1.008 0.094,-1.89 0.135,-1.958 0.167,-0.282 1.516,-0.118 2.06,0.25 m -21.145002,12.666 c -0.182,0.662 0.103,0.948 1.274,1.28 0.43,0.123 1.007,0.316 1.282,0.431 0.275,0.114 0.95,0.295 1.5,0.401 0.55,0.107 1.337,0.278 1.75,0.381 1.361,0.339 5.692,0.37 7.397,0.053 2.255999,-0.42 4.529002,-1.024 4.845002,-1.288 0.087,-0.073 0.285,-0.133 0.44,-0.133 0.582,0 1.004,-0.54 0.885,-1.132 -0.124,-0.611 -0.63,-0.637 -2.4,-0.123 -3.300002,0.958 -9.781002,1.165 -13.084002,0.419 -0.366,-0.083 -1.299,-0.304 -2.073,-0.491 -1.761,-0.425 -1.64,-0.438 -1.816,0.202 m -4.832,7.608 c -0.329,0.203 -0.197,4.601 0.138,4.601 0.186,0 0.263,-0.236 0.302,-0.913 0.061,-1.09 0.154,-1.165 1.456,-1.168 1.239,-0.003 1.409,0.153 1.409,1.293 0,0.763 0.043,0.887 0.291,0.839 0.438,-0.084 0.446,-4.517 0.009,-4.601 -0.236,-0.046 -0.291,0.107 -0.333,0.914 l -0.051,0.969 -1.375,0.048 -1.375,0.049 v -0.997 c 0,-1.02 -0.109,-1.258 -0.471,-1.034 m 12.325,0.002 c -0.126,0.08 -0.188,0.213 -0.136,0.296 0.099,0.161 0.707,2.34 0.977,3.504 0.275,1.184 1.001,1.185 1.315,0 0.748,-2.822 0.833,-2.923 1.258,-1.493 0.658,2.219 0.69,2.291 1.046,2.345 0.376,0.057 0.49,-0.139 0.86,-1.47 0.114,-0.413 0.301,-1.05 0.414,-1.417 0.415,-1.339 0.459,-1.75 0.185,-1.75 -0.381,0 -0.651,0.685 -1.049,2.667 -0.175,0.867 -0.212,0.916 -0.489,0.64 -0.242,-0.243 -0.664,-1.617 -0.851,-2.774 -0.076,-0.472 -0.149,-0.544 -0.506,-0.5 -0.429,0.052 -0.457,0.123 -1.103,2.824 -0.239,0.998 -0.563,0.674 -0.942,-0.942 -0.404,-1.723 -0.623,-2.155 -0.979,-1.93 m -3.238,0.542 c -0.151,0.335 -0.369,0.641 -0.485,0.68 -0.155,0.051 -0.134,0.147 0.079,0.36 0.216,0.217 0.29,0.566 0.29,1.373 0,1.338 0.187,1.727 0.83,1.727 0.266,0 0.53,-0.075 0.587,-0.167 0.057,-0.091 -0.036,-0.166 -0.207,-0.166 -0.7,0 -1.125,-2.548 -0.46,-2.756 0.797,-0.248 0.837,-0.296 0.334,-0.397 -0.414,-0.083 -0.517,-0.2 -0.597,-0.682 l -0.098,-0.582 -0.273,0.61 m 13.828002,0 c -0.148,0.335 -0.364,0.649 -0.481,0.698 -0.156,0.065 -0.134,0.139 0.079,0.274 0.233,0.147 0.292,0.422 0.292,1.354 0,1.424 0.178,1.814 0.829,1.814 0.266,0 0.531,-0.075 0.587,-0.167 0.057,-0.091 -0.053,-0.166 -0.244,-0.166 -0.411,0 -0.673,-0.575 -0.67,-1.47 0.003,-0.926 0.166,-1.364 0.507,-1.364 0.168,0 0.351,-0.075 0.407,-0.166 0.058,-0.094 -0.076,-0.167 -0.307,-0.167 -0.334,0 -0.439,-0.116 -0.57,-0.625 l -0.16,-0.625 -0.269,0.61 m -17.671002,0.886 c -1.452,1.1 -0.665,3.254 1.189,3.254 1.64,0 2.362,-1.694 1.274,-2.987 -0.489,-0.581 -1.853,-0.729 -2.463,-0.267 m 13.894,-0.079 c 0,0.091 0.359999,0.166 0.799999,0.166 0.884,0 1.2,0.206 1.2,0.784 0,0.353 -0.071,0.383 -0.917,0.383 -1.034999,0 -1.582999,0.371 -1.582999,1.071 0,0.758 0.369,0.92 2.005999,0.882 1.400003,-0.032 1.726003,-0.123 1.327003,-0.37 -0.091,-0.056 -0.166,-0.649 -0.166,-1.317 0,-1.554 -0.197,-1.766 -1.638003,-1.766 -0.575,0 -1.028999,0.074 -1.028999,0.167 m 6.228002,0.124 c -1.005,0.827 -0.93,2.444 0.14,3.016 0.446,0.239 2.24,0.2 2.172,-0.047 -0.024,-0.086 -0.399,-0.138 -0.833,-0.115 -0.616,0.032 -0.875,-0.037 -1.175,-0.317 -0.714,-0.666 -0.44,-0.906 1.095,-0.96 1.563,-0.055 1.679,-0.197 0.992,-1.218 -0.464,-0.692 -1.752,-0.885 -2.391,-0.359 m 3.343,-0.069 c -0.226,0.588 0.012,3.191 0.296,3.245 0.244,0.047 0.292,-0.12 0.334,-1.162 0.047,-1.167 0.071,-1.23 0.584,-1.552 0.544,-0.342 0.725,-0.753 0.332,-0.753 -0.119,0 -0.309,0.092 -0.421,0.204 -0.161,0.161 -0.273,0.161 -0.531,0 -0.413,-0.258 -0.489,-0.256 -0.594,0.018 m -21.416002,0.55 c 1.049,1.335 -0.553,3.175 -1.769,2.032 -0.52,-0.488 -0.532,-1.544 -0.024,-2.085 0.513,-0.545 1.341,-0.521 1.793,0.053 m 19.874002,-0.163 c 0.664,0.601 0.402,0.912 -0.724,0.857 -1.146,-0.055 -1.348,-0.258 -0.783,-0.785 0.45,-0.418 1.09,-0.449 1.507,-0.072 m -6.085003,1.486 c 0.204,0.531 -0.284,1.072 -0.966,1.072 -0.811,0 -1.170999,-0.511 -0.715,-1.014 0.367,-0.406 1.532,-0.446 1.681,-0.058"
       sodipodi:nodetypes="cccsccccccsccscscsccccccccccccccccccccccscccccccccccccccccccccccccccccsccccccsccsccccccscccccccccsccccccccccsscsccccccccsscscscsccccscccssssccsscccccccccccccsscccccccccccscc" />
    <path
       id="path2-0"
       d="m 6.655743,225.65601 c -0.064,0.063 -0.115,1.377 -0.115,2.92 v 2.806 h 3.004004 3.004 l -0.046,-2.875 -0.046,-2.875 -2.843,-0.046 c -1.564004,-0.025 -2.895004,0.006 -2.958004,0.07"
       inkscape:connector-curvature="0"
       style="fill:#fc7c24;fill-rule:evenodd;stroke:none"
       sodipodi:nodetypes="csccccccc" />
  </g>
</svg>
