<?xml version="1.0" encoding="UTF-8" standalone="no"?>
<svg
   xmlns:dc="http://purl.org/dc/elements/1.1/"
   xmlns:cc="http://creativecommons.org/ns#"
   xmlns:rdf="http://www.w3.org/1999/02/22-rdf-syntax-ns#"
   xmlns:svg="http://www.w3.org/2000/svg"
   xmlns="http://www.w3.org/2000/svg"
   xmlns:sodipodi="http://sodipodi.sourceforge.net/DTD/sodipodi-0.dtd"
   xmlns:inkscape="http://www.inkscape.org/namespaces/inkscape"
   id="svg"
   version="1.1"
   width="12.833"
   height="12.688763"
   viewBox="0 0 12.833 12.688762"
   sodipodi:docname="noWater.svg"
   inkscape:version="0.92.4 (5da689c313, 2019-01-14)">
  <metadata
     id="metadata13">
    <rdf:RDF>
      <cc:Work
         rdf:about="">
        <dc:format>image/svg+xml</dc:format>
        <dc:type
           rdf:resource="http://purl.org/dc/dcmitype/StillImage" />
        <dc:title />
      </cc:Work>
    </rdf:RDF>
  </metadata>
  <defs
     id="defs11">
    <filter
       style="color-interpolation-filters:sRGB;"
       inkscape:label="Invert"
       id="filter818">
      <feColorMatrix
         values="-1 0 0 0 1 0 -1 0 0 1 0 0 -1 0 1 -0.21 -0.72 -0.07 2 0 "
         result="color2"
         id="feColorMatrix816" />
    </filter>
  </defs>
  <sodipodi:namedview
     pagecolor="#ffffff"
     bordercolor="#666666"
     borderopacity="1"
     objecttolerance="10"
     gridtolerance="10"
     guidetolerance="10"
     inkscape:pageopacity="0"
     inkscape:pageshadow="2"
     inkscape:window-width="1920"
     inkscape:window-height="1017"
     id="namedview9"
     showgrid="false"
     inkscape:snap-nodes="false"
     inkscape:zoom="1.75"
     inkscape:cx="-242.26389"
     inkscape:cy="-73.219523"
     inkscape:window-x="-8"
     inkscape:window-y="-8"
     inkscape:window-maximized="1"
     inkscape:current-layer="svgg" />
  <g
     id="svgg"
     transform="translate(-274.26246,-133.37791)">
    <path
       id="path0-7"
       d="m 274.47046,133.47493 c -0.115,0.046 -0.208,0.176 -0.208,0.289 0,0.205 11.602,11.875 12.061,12.132 0.295,0.165 0.772,0.005 0.772,-0.258 0,-0.242 -12.027,-12.278 -12.251,-12.26 -0.091,0.007 -0.259,0.051 -0.374,0.097 m 5.769,0.255 c -1.124,2.046 -1.224,2.491 -0.636,2.806 0.236,0.126 0.325,0.093 0.402,-0.149 0.368,-1.159 0.692,-0.975 1.645,0.936 1.528,3.062 2.778,4.672 2.778,3.577 0,-0.397 -3.547,-7.412 -3.788,-7.493 -0.104,-0.034 -0.284,0.111 -0.401,0.323 m -2.964,5.843 c -0.571,1.369 -0.675,1.766 -0.677,2.59 -0.01,3.272 4.396,5.19699 6.629,2.896 0.663,-0.683 0.04,-1.124 -0.773,-0.546 -2.771,1.96999 -5.918,-0.949 -4.442,-4.12 0.357,-0.767 0.381,-0.921 0.177,-1.125 -0.377,-0.376 -0.67,-0.278 -0.914,0.305"
       inkscape:connector-curvature="0"
       style="fill:#1a1a1a;fill-rule:evenodd;stroke:none;filter:url(#filter818)"
       sodipodi:nodetypes="cscsccccccsccccccccc" />
  </g>
</svg>
