<?xml version="1.0" encoding="UTF-8" standalone="no"?>
<svg
   xmlns:dc="http://purl.org/dc/elements/1.1/"
   xmlns:cc="http://creativecommons.org/ns#"
   xmlns:rdf="http://www.w3.org/1999/02/22-rdf-syntax-ns#"
   xmlns:svg="http://www.w3.org/2000/svg"
   xmlns="http://www.w3.org/2000/svg"
   xmlns:sodipodi="http://sodipodi.sourceforge.net/DTD/sodipodi-0.dtd"
   xmlns:inkscape="http://www.inkscape.org/namespaces/inkscape"
   id="svg"
   version="1.1"
   width="41.870708"
   height="41.686668"
   viewBox="0 0 41.870708 41.686667"
   sodipodi:docname="start.svg"
   inkscape:version="0.92.4 (5da689c313, 2019-01-14)">
  <metadata
     id="metadata13">
    <rdf:RDF>
      <cc:Work
         rdf:about="">
        <dc:format>image/svg+xml</dc:format>
        <dc:type
           rdf:resource="http://purl.org/dc/dcmitype/StillImage" />
        <dc:title />
      </cc:Work>
    </rdf:RDF>
  </metadata>
  <defs
     id="defs11">
    <filter
       style="color-interpolation-filters:sRGB;"
       inkscape:label="Invert"
       id="filter818">
      <feColorMatrix
         values="-1 0 0 0 1 0 -1 0 0 1 0 0 -1 0 1 -0.21 -0.72 -0.07 2 0 "
         result="color2"
         id="feColorMatrix816" />
    </filter>
  </defs>
  <sodipodi:namedview
     pagecolor="#ffffff"
     bordercolor="#666666"
     borderopacity="1"
     objecttolerance="10"
     gridtolerance="10"
     guidetolerance="10"
     inkscape:pageopacity="0"
     inkscape:pageshadow="2"
     inkscape:window-width="1920"
     inkscape:window-height="1017"
     id="namedview9"
     showgrid="false"
     inkscape:snap-nodes="false"
     inkscape:zoom="1.75"
     inkscape:cx="-159.24254"
     inkscape:cy="-11.219212"
     inkscape:window-x="-8"
     inkscape:window-y="-8"
     inkscape:window-maximized="1"
     inkscape:current-layer="svgg" />
  <g
     id="svgg"
     transform="translate(-334.91631,-166.38032)">
    <path
       id="path0-7-3-7"
       d="m 353.4169,166.45049 c -2.862,0.303 -5.261,1.094 -8.333,2.747 -0.184,0.098 -0.371,0.217 -0.417,0.263 -0.046,0.046 -0.533,0.37701 -1.083,0.73601 -10.255,6.693 -11.677,22.501 -2.835,31.513 2.169,2.211 6.549,5.084 7.752,5.084 0.094,0 0.301,0.068 0.46,0.151 0.31,0.161 1.764,0.545 3.123,0.824 5.101,1.046 12.708,-0.758 16.177,-3.837 0.189,-0.168 0.443,-0.305 0.565,-0.305 0.377,0 3.165,-2.85 4.141,-4.233 2.138,-3.03 3.288,-6.023 3.722,-9.684 0.198,-1.667 0.079,-5.576 -0.202,-6.646 -0.099,-0.378 -0.258,-0.987 -0.354,-1.354 -0.258,-0.982 -0.953,-2.934 -1.226,-3.44 -0.131,-0.242 -0.407,-0.767 -0.614,-1.167 -1.066,-2.056 -4.767,-6.309 -5.491,-6.309 -0.166,0 -0.302,-0.057 -0.302,-0.125 0,-0.069 -0.356,-0.347 -0.792,-0.618 -0.435,-0.271 -0.829,-0.53601 -0.874,-0.59001 -0.566,-0.655 -4.679,-2.249 -7.25,-2.808 -1.101,-0.24 -4.699,-0.357 -6.167,-0.202 m 6.25,0.94 c 6.728,1.406 12.279,5.98401 14.734,12.15301 0.256,0.641 0.639,1.541 0.852,2 1.143,2.463 1.16,9.582 0.026,11.313 -0.153,0.234 -0.396,0.769 -0.539,1.191 -0.621,1.831 -2.01,4.286 -3.344,5.912 -1.285,1.567 -4.229,4.167 -4.718,4.167 -0.098,0 -0.178,0.056 -0.178,0.125 0,0.155 -2.097,1.239 -3.333,1.724 -3.987,1.563 -9.21,1.811 -13,0.616 -2.209,-0.696 -5.167,-2.028 -5.167,-2.326 0,-0.076 -0.078,-0.139 -0.173,-0.139 -0.503,0 -3.702,-2.83 -4.987,-4.412 -1.151,-1.417 -2.869,-4.644 -3.33,-6.255 -0.118,-0.412 -0.282,-0.937 -0.364,-1.166 -0.617,-1.719 -0.806,-5.676 -0.394,-8.236 0.397,-2.466 2.157,-7.178 2.765,-7.403 0.083,-0.031 0.15,-0.128 0.15,-0.216 0,-1.209 5.328,-6.055 8.016,-7.29001 2.244,-1.03 2.273,-1.041 4.484,-1.614 2.092,-0.543 6.252,-0.613 8.5,-0.144 m -13.467,14.76901 c -0.145,0.146 -0.2,1.434 -0.2,4.754 v 4.553 l 0.405,0.185 c 0.364,0.166 0.668,0.014 3.096,-1.546 1.48,-0.951 2.93,-1.868 3.22,-2.037 1.441,-0.839 2,-1.775 1.061,-1.775 -0.075,0 -0.383,-0.188 -0.684,-0.417 -0.3,-0.229 -0.632,-0.417 -0.738,-0.417 -0.106,0 -0.193,-0.075 -0.193,-0.166 0,-0.092 -0.087,-0.167 -0.193,-0.167 -0.106,0 -0.424,-0.175 -0.708,-0.389 -2.474,-1.868 -4.662,-2.981 -5.066,-2.578 m 11.092,0.48 c -0.368,0.215 -0.454,8.092 -0.092,8.454 0.361,0.361 8.289,0.276 8.568,-0.092 0.389,-0.512 0.324,-7.907 -0.072,-8.266 -0.361,-0.326 -7.862,-0.411 -8.404,-0.096"
       inkscape:connector-curvature="0"
       style="fill:#1a1a1a;fill-rule:evenodd;stroke:none;filter:url(#filter818)"
       sodipodi:nodetypes="ccsccscccsccccccssccccccccccssccsscccccsccccsccccscssscccsccc"
       transform="matrix(0.9086153,0,0,0.9086153,32.519399,16.823663)" />
  </g>
</svg>
