<?xml version="1.0" encoding="UTF-8" standalone="no"?>
<svg
   xmlns:dc="http://purl.org/dc/elements/1.1/"
   xmlns:cc="http://creativecommons.org/ns#"
   xmlns:rdf="http://www.w3.org/1999/02/22-rdf-syntax-ns#"
   xmlns:svg="http://www.w3.org/2000/svg"
   xmlns="http://www.w3.org/2000/svg"
   xmlns:sodipodi="http://sodipodi.sourceforge.net/DTD/sodipodi-0.dtd"
   xmlns:inkscape="http://www.inkscape.org/namespaces/inkscape"
   id="svg"
   version="1.1"
   width="69.649712"
   height="55.173"
   viewBox="0 0 69.649711 55.173"
   sodipodi:docname="steam1.svg"
   inkscape:version="0.92.4 (5da689c313, 2019-01-14)">
  <metadata
     id="metadata13">
    <rdf:RDF>
      <cc:Work
         rdf:about="">
        <dc:format>image/svg+xml</dc:format>
        <dc:type
           rdf:resource="http://purl.org/dc/dcmitype/StillImage" />
        <dc:title></dc:title>
      </cc:Work>
    </rdf:RDF>
  </metadata>
  <defs
     id="defs11">
    <filter
       style="color-interpolation-filters:sRGB;"
       inkscape:label="Invert"
       id="filter818">
      <feColorMatrix
         values="-1 0 0 0 1 0 -1 0 0 1 0 0 -1 0 1 -0.21 -0.72 -0.07 2 0 "
         result="color2"
         id="feColorMatrix816" />
    </filter>
  </defs>
  <sodipodi:namedview
     pagecolor="#ffffff"
     bordercolor="#666666"
     borderopacity="1"
     objecttolerance="10"
     gridtolerance="10"
     guidetolerance="10"
     inkscape:pageopacity="0"
     inkscape:pageshadow="2"
     inkscape:window-width="1920"
     inkscape:window-height="1017"
     id="namedview9"
     showgrid="false"
     inkscape:snap-nodes="false"
     inkscape:zoom="4.9497475"
     inkscape:cx="-48.328662"
     inkscape:cy="36.352555"
     inkscape:window-x="-8"
     inkscape:window-y="-8"
     inkscape:window-maximized="1"
     inkscape:current-layer="svgg" />
  <g
     id="svgg"
     transform="translate(-72.773413,-188.76501)">
    <path
       inkscape:connector-curvature="0"
       style="fill:#3b3035;fill-rule:evenodd;stroke:none;filter:url(#filter818)"
       id="path0-3"
       d="m 107.34841,201.94101 c -0.252,0.279 -0.335,0.757 -0.444,2.542 -0.074,1.209 -0.213,2.937 -0.31,3.84 -0.161,1.508 -0.15,1.659 0.127,1.869 1.016,0.77 1.541,-0.478 1.549,-3.681 0.002,-0.736 0.083,-1.97 0.18,-2.743 0.244,-1.952 -0.248,-2.77 -1.102,-1.827 m 3.024,-0.025 c -0.295,0.325 -0.722,8.635 -0.479,9.323 0.334,0.944 1.293,1.152 1.88,0.406 0.39,-0.496 0.388,-1.683 -0.014,-7.192 -0.206,-2.827 -0.553,-3.46 -1.387,-2.537 m 3.071,0.134 c -0.207,0.262 -0.321,0.593 -0.274,0.791 0.045,0.188 0.164,1.241 0.264,2.341 0.483,5.273 0.654,5.776 1.68,4.945 0.37,-0.3 0.373,-0.334 0.183,-1.875 -0.106,-0.864 -0.294,-2.599 -0.417,-3.857 -0.276,-2.814 -0.622,-3.38 -1.436,-2.345 m -10.436,4.54 c -3.395997,2.607 -1.468,7.842 2.887,7.842 0.625,0 0.715,0.059 1.098,0.708 1.8,3.061 6.402,2.944 8.03,-0.205 0.226,-0.437 0.351,-0.503 0.952,-0.503 2.582,0 4.633,-1.932 4.633,-4.364 0,-1.597 -0.588,-2.619 -2.285,-3.975 -0.303,-0.242 -1.148,-0.193 -1.374,0.08 -0.369,0.444 -0.127,0.968 0.659,1.426 3.21,1.872 0.672,6.607 -2.653,4.948 -0.86,-0.429 -1.014,-0.372 -1.014,0.375 0,0.361 -0.075,0.703 -0.167,0.76 -0.091,0.057 -0.166,0.242 -0.166,0.412 0,0.495 -1.396,1.612 -2.169,1.736 -1.809,0.289 -3.441,-1.127 -3.485,-3.023 -0.013,-0.548 -0.395,-0.744 -0.771,-0.395 -0.741,0.686 -2.566,0.532 -3.457,-0.292 -1.472,-1.361 -1.273,-3.237 0.48,-4.533 0.943,-0.696 1.035,-0.882 0.67,-1.363 -0.348,-0.459 -0.947,-0.341 -1.868,0.366 m -1.848,18.01 c -1.256997,0.507 -0.854,2.103 0.632,2.503 2.047,0.552 1.817,1.989 -0.242,1.514 -0.569,-0.131 -0.889,-0.138 -1.005,-0.022 -0.613997,0.614 2.372,0.878 3.045,0.27 0.873,-0.79 0.262,-2.045 -1.144,-2.35 -0.811,-0.176 -1.172,-0.439 -1.172,-0.853 0,-0.52 0.781,-0.806 1.592,-0.582 0.673,0.185 0.908,0.128 0.908,-0.22 0,-0.389 -1.839,-0.572 -2.614,-0.26 m 3.999,0.665 c -0.112,0.295 -0.309,0.5 -0.483,0.5 -0.26,0 -0.252,0.044 0.069,0.386 0.263,0.28 0.363,0.595 0.363,1.146 0,1.709 0.483,2.261 1.654,1.889 0.446,-0.142 0.285,-0.421 -0.242,-0.421 -0.5,0 -0.746,-0.438 -0.746,-1.333 0,-0.895 0.246,-1.333 0.746,-1.333 0.221,0 0.448,-0.075 0.504,-0.167 0.06,-0.096 -0.098,-0.167 -0.373,-0.167 -0.545,0 -0.877,-0.264 -0.877,-0.7 0,-0.479 -0.409,-0.346 -0.615,0.2 m 2.961,0.932 c -1.548,1.303 0.115,3.533 2.238,3 0.739,-0.186 0.39,-0.502 -0.511,-0.464 -0.917,0.038 -1.47,-0.262 -1.377,-0.747 0.049,-0.256 0.251,-0.312 1.273,-0.353 1.369,-0.056 1.541,-0.21 1.125,-1.014 -0.506,-0.978 -1.843,-1.183 -2.748,-0.422 m 3.897,-0.254 c -0.182,0.296 0.058,0.388 0.899,0.343 0.854,-0.045 1.315,0.251 1.132,0.727 -0.069,0.181 -0.345,0.252 -0.981,0.252 -0.681,0 -0.952,0.078 -1.172,0.336 -0.823,0.961 0.342,2 1.708,1.524 0.356,-0.124 0.656,-0.123 1.017,0.003 0.677,0.236 1.012,-0.042 0.6,-0.497 -0.178,-0.197 -0.279,-0.593 -0.279,-1.095 0,-1.438 -0.312,-1.771 -1.661,-1.771 -0.637,0 -1.202,0.08 -1.263,0.178 m 4.091,1.471 c 0,1.261 0.055,1.67 0.233,1.739 0.358,0.137 0.433,-0.034 0.433,-0.988 0,-1.588 0.641,-2.425 1.33,-1.737 0.273,0.273 0.337,0.555 0.337,1.486 0,0.832 0.064,1.174 0.234,1.239 0.365,0.14 0.433,-0.036 0.433,-1.128 0,-1.113 0.305,-1.76 0.831,-1.76 0.624,0 0.835,0.45 0.835,1.774 0,1.101 0.035,1.244 0.292,1.195 0.415,-0.079 0.515,-2.48 0.128,-3.07 -0.275,-0.421 -1.452,-0.585 -1.67,-0.232 -0.056,0.092 -0.286,0.167 -0.51,0.167 -0.223,0 -0.406,-0.075 -0.406,-0.167 0,-0.24 -1.226,-0.206 -1.488,0.042 -0.177,0.166 -0.236,0.166 -0.297,0 -0.042,-0.115 -0.22,-0.209 -0.396,-0.209 -0.293,0 -0.319,0.135 -0.319,1.649 m -6.067,-0.897 c 0.561,0.561 0.389,0.748 -0.683,0.748 -0.494,0 -0.943,-0.074 -0.999,-0.165 -0.133,-0.214 0.653,-1.001 0.999,-1.001 0.146,0 0.453,0.188 0.683,0.418 m 4.035,1.529 c 0.077,0.539 -0.675,0.997 -1.225,0.747 -0.821,-0.374 -0.38,-1.242 0.589,-1.16 0.455,0.038 0.596,0.13 0.636,0.413"
       sodipodi:nodetypes="ccccccccccccccccccccsccssccccscsccccccccccsccscsccscscssscsscccccccccccsccccsscccscscssscccssccsccscsccccc" />
    <path
       id="path2-0-5"
       d="m 91.250024,223.79221 c -0.064,0.063 -0.115,1.377 -0.115,2.92 v 2.806 h 3.004 3.004 l -0.046,-2.875 -0.046,-2.875 -2.843,-0.046 c -1.564,-0.025 -2.895,0.006 -2.958,0.07"
       inkscape:connector-curvature="0"
       style="fill:#fc7c24;fill-rule:evenodd;stroke:none"
       sodipodi:nodetypes="csccccccc" />
  </g>
</svg>
