<?xml version="1.0" encoding="UTF-8" standalone="no"?>
<svg
   xmlns:dc="http://purl.org/dc/elements/1.1/"
   xmlns:cc="http://creativecommons.org/ns#"
   xmlns:rdf="http://www.w3.org/1999/02/22-rdf-syntax-ns#"
   xmlns:svg="http://www.w3.org/2000/svg"
   xmlns="http://www.w3.org/2000/svg"
   xmlns:sodipodi="http://sodipodi.sourceforge.net/DTD/sodipodi-0.dtd"
   xmlns:inkscape="http://www.inkscape.org/namespaces/inkscape"
   id="svg"
   version="1.1"
   width="13.979047"
   height="10.011307"
   viewBox="0 0 13.979047 10.011307"
   sodipodi:docname="trester.svg"
   inkscape:version="0.92.4 (5da689c313, 2019-01-14)">
  <metadata
     id="metadata13">
    <rdf:RDF>
      <cc:Work
         rdf:about="">
        <dc:format>image/svg+xml</dc:format>
        <dc:type
           rdf:resource="http://purl.org/dc/dcmitype/StillImage" />
        <dc:title />
      </cc:Work>
    </rdf:RDF>
  </metadata>
  <defs
     id="defs11">
    <filter
       style="color-interpolation-filters:sRGB;"
       inkscape:label="Invert"
       id="filter818">
      <feColorMatrix
         values="-1 0 0 0 1 0 -1 0 0 1 0 0 -1 0 1 -0.21 -0.72 -0.07 2 0 "
         result="color2"
         id="feColorMatrix816" />
    </filter>
  </defs>
  <sodipodi:namedview
     pagecolor="#ffffff"
     bordercolor="#666666"
     borderopacity="1"
     objecttolerance="10"
     gridtolerance="10"
     guidetolerance="10"
     inkscape:pageopacity="0"
     inkscape:pageshadow="2"
     inkscape:window-width="1920"
     inkscape:window-height="1017"
     id="namedview9"
     showgrid="false"
     inkscape:snap-nodes="false"
     inkscape:zoom="3.5"
     inkscape:cx="-95.574842"
     inkscape:cy="28.969011"
     inkscape:window-x="-8"
     inkscape:window-y="-8"
     inkscape:window-maximized="1"
     inkscape:current-layer="svgg" />
  <g
     id="svgg"
     transform="translate(-273.95977,-171.14665)">
    <path
       id="path0-7"
       d="m 275.36546,172.68593 c -2.035,2.071 -2.155,1.666 1.619,5.47 3.721,3.752 3.41,3.669 5.573,1.497 1.605,-1.611 1.737,-1.837 1.233,-2.106 -0.254,-0.136 -0.534,0.067 -1.69,1.229 -0.957,0.962 -1.469,1.363 -1.654,1.295 -0.354,-0.13 -5.518,-5.227 -5.518,-5.446 0,-0.094 0.618,-0.791 1.373,-1.55 1.137,-1.143 1.343,-1.429 1.197,-1.66 -0.319,-0.506 -0.485,-0.407 -2.133,1.271 m 2.656,0.716 c -0.341,0.487 -0.328,0.849 0.045,1.187 0.572,0.517 1.362,0.154 1.362,-0.627 0,-0.82 -0.958,-1.201 -1.407,-0.56 m 3.834,0.008 c -0.334,0.51 -0.158,1.099 0.369,1.231 0.556,0.14 0.942,-0.12 1.008,-0.678 0.107,-0.899 -0.889,-1.299 -1.377,-0.553 m 3.365,0.687 c -0.399,0.303 -0.366,0.914 0.07,1.292 0.826,0.716 1.977,-0.515 1.167,-1.249 -0.365,-0.329 -0.838,-0.346 -1.237,-0.043 m -5.167,1.948 c -0.335,0.195 -0.391,0.987 -0.091,1.286 0.294,0.295 0.875,0.244 1.191,-0.104 0.678,-0.75 -0.207,-1.702 -1.1,-1.182 m 6.407,1.326 c -0.453,0.422 -0.459,0.664 -0.025,1.129 0.414,0.445 0.85,0.466 1.218,0.06 0.82,-0.907 -0.299,-2.022 -1.193,-1.189"
       inkscape:connector-curvature="0"
       style="fill:#1a1a1a;fill-rule:evenodd;stroke:none;filter:url(#filter818)"
       sodipodi:nodetypes="ccccccscccccsccccccccccccccccc" />
  </g>
</svg>
